<svg xmlns="http://www.w3.org/2000/svg" width="100" height="22" viewBox="0 0 200 44">
    <g fill="#00000" fill-rule="evenodd">
        <path d="M24.308 34.769H9.855a1.686 1.686 0 0 1-1.692-1.679V2.68C8.163 1.75 7.405 1 6.47 1h-4.78C.758 1 0 1.751 0 2.679V41.32C0 42.248.757 43 1.692 43h22.616c.935 0 1.692-.752 1.692-1.679v-4.873c0-.928-.757-1.679-1.692-1.679M82.923 25.292c-.073.272-.153.54-.238.802-.4 1.232-2.031 1.56-2.91.594l-5.885-6.46a1.742 1.742 0 0 0-2.404-.15l-2.623 2.228a1.643 1.643 0 0 0-.159 2.366l6.73 7.431c.768.85.47 2.193-.597 2.64-.47.199-.958.373-1.461.523a14.02 14.02 0 0 1-4.04.567c-2.04 0-3.916-.378-5.63-1.134-1.713-.756-3.192-1.782-4.436-3.076-1.246-1.293-2.224-2.807-2.937-4.54-.715-1.73-1.072-3.592-1.072-5.583 0-1.95.357-3.802 1.072-5.554.713-1.752 1.691-3.275 2.937-4.569 1.244-1.293 2.723-2.32 4.437-3.076 1.713-.756 3.59-1.135 5.63-1.135 1.999 0 3.865.38 5.6 1.135 1.733.757 3.221 1.783 4.467 3.076 1.244 1.294 2.223 2.817 2.937 4.569a14.588 14.588 0 0 1 1.071 5.554c0 1.314-.163 2.578-.49 3.792zm5.136 10.52a1.643 1.643 0 0 1-.14-2.052 21.667 21.667 0 0 0 2.561-5.093c.796-2.27 1.194-4.659 1.194-7.167 0-2.986-.541-5.783-1.622-8.391a20.257 20.257 0 0 0-4.59-6.809c-1.979-1.93-4.335-3.463-7.068-4.598C75.66.567 72.641 0 69.337 0c-3.305 0-6.324.567-9.058 1.702C57.546 2.837 55.19 4.37 53.211 6.3a20.221 20.221 0 0 0-4.59 6.809C47.54 15.717 47 18.514 47 21.499c0 2.987.54 5.785 1.622 8.392a20.2 20.2 0 0 0 4.59 6.809c1.978 1.93 4.334 3.463 7.067 4.598C63.013 42.432 66.032 43 69.337 43c2.447 0 4.732-.309 6.854-.926 1.66-.482 3.22-1.13 4.68-1.942.71-.395 1.605-.261 2.145.338l1.231 1.366c.325.36.794.567 1.285.567h4.753c1.48 0 2.263-1.712 1.274-2.787l-3.5-3.804zM133.321 1h-4.742c-.928 0-1.68.759-1.68 1.695v23.439c0 1.938-.24 3.533-.72 4.784-.479 1.252-1.16 2.282-2.04 3.089-1.88 1.817-4.26 2.725-7.139 2.725-2.88 0-5.26-.908-7.14-2.725-.88-.807-1.56-1.837-2.04-3.089-.48-1.25-.72-2.846-.72-4.784V2.694c0-.935-.752-1.694-1.679-1.694h-4.742C99.752 1 99 1.759 99 2.695v22.833c0 3.27.46 6.047 1.38 8.328.92 2.281 2.26 4.209 4.02 5.783 1.64 1.454 3.55 2.544 5.73 3.27C112.31 43.638 114.6 44 117 44c2.4 0 4.69-.363 6.87-1.09 2.18-.727 4.09-1.817 5.73-3.27 1.76-1.575 3.1-3.503 4.02-5.784.92-2.28 1.38-5.058 1.38-8.328V2.695c0-.936-.752-1.695-1.679-1.695M146.66 31h4.68c.917 0 1.66-.758 1.66-1.692V2.692c0-.934-.743-1.692-1.66-1.692h-4.68c-.917 0-1.66.758-1.66 1.692v26.616c0 .934.743 1.692 1.66 1.692M190.09 26.98c-.54 1.56-1.29 2.94-2.25 4.14a11.874 11.874 0 0 1-4.35 3.45c-1.74.82-3.87 1.23-6.39 1.23h-4.322a1.679 1.679 0 0 1-1.678-1.678V9.878c0-.927.751-1.678 1.678-1.678h4.322c2.52 0 4.65.41 6.39 1.23 1.74.82 3.19 1.97 4.35 3.45.96 1.2 1.71 2.58 2.25 4.14.54 1.56.81 3.22.81 4.98 0 1.76-.27 3.42-.81 4.98m6.69-14.7c-1.48-2.96-3.52-5.4-6.12-7.32-1.72-1.28-3.72-2.26-6-2.94-2.28-.68-5.1-1.02-8.46-1.02h-11.522C163.75 1 163 1.751 163 2.678v38.644c0 .927.751 1.678 1.678 1.678H176.2c3.36 0 6.18-.34 8.46-1.02 2.28-.68 4.28-1.66 6-2.94 2.6-1.92 4.64-4.36 6.12-7.32 1.48-2.96 2.22-6.2 2.22-9.72 0-3.52-.74-6.76-2.22-9.72M31 1a5 5 0 1 0 0 10 5 5 0 0 0 0-10M149 34a5 5 0 1 0 0 10 5 5 0 0 0 0-10"/>
    </g>
</svg>
